<svg
  xmlns="http://www.w3.org/2000/svg"
  width="206"
  height="13"
  viewBox="0 0 206 13"
>
  <g fill="none" fill-rule="evenodd" stroke="none" stroke-width="1">
    <g
      id="TruffleSecurity_Logo"
      fill="#333333"
      fill-rule="nonzero"
      transform="translate(-97 -134)"
      class="truffle-logo-fill"
    >
      <g transform="translate(0 40)">
        <g transform="translate(97.96 94.32)">
          <path
            d="M4.544,11.712 C4.768,11.712 4.976,11.648 5.152,11.504 C5.408,11.296 5.52,11.056 5.552,10.688 C5.568,10.48 5.568,10.256 5.568,10 L5.568,3.712 L5.584,3.472 L5.584,3.472 L5.584,3.2 C5.584,2.64 6.016,2.224 6.56,2.224 L7.584,2.224 C7.872,2.224 8.144,2.176 8.384,2.08 C8.832,1.904 9.024,1.6 9.04,1.2 C9.04149243,1.17686597 9.04221924,1.15421924 9.04221924,1.13204858 C9.04221924,0.67887085 8.73856738,0.424537354 8.464,0.272 C8.304,0.192 8.128,0.144 7.936,0.144 L7.808,0.144 C7.696,0.128 7.584,0.128 7.488,0.128 L1.488,0.128 C1.344,0.128 1.2,0.128 1.04,0.144 C0.736,0.176 0.464,0.304 0.256,0.512 C0.048,0.72 0,0.944 0,1.184 C0.016,1.408 0.064,1.632 0.272,1.84 C0.608,2.16 1.04,2.208 1.36,2.224 L2.496,2.224 C2.832,2.224 3.056,2.304 3.232,2.464 C3.36914286,2.60114286 3.4475102,2.78530612 3.47717784,3.0467172 L3.488,3.184 C3.504,3.312 3.504,3.472 3.504,3.6 L3.504,10.032 C3.504,10.256 3.52,10.512 3.552,10.72 C3.584,11.072 3.68,11.296 3.936,11.488 C4.112,11.632 4.336,11.712 4.544,11.712 Z M20.4,11.728 C20.672,11.728 20.912,11.616 21.12,11.376 C21.2707278,11.1951265 21.3520369,10.9953206 21.3520369,10.7726189 C21.3520369,10.6407187 21.3235146,10.5007869 21.264,10.352 C21.168,10.08 20.992,9.84 20.816,9.616 L20.736,9.504 C20.4,9.088 20,8.56 19.696,8.16 C19.552,7.968 19.48,7.792 19.48,7.616 C19.48,7.44 19.552,7.264 19.696,7.072 C19.776,6.96 19.872,6.864 19.968,6.768 L20.16,6.576 C20.72,5.92 21.056,5.136 21.104,4.32 C21.1058823,4.27105884 21.1068235,4.2221731 21.1068235,4.17336548 C21.1068235,3.39244287 20.8658823,2.6315293 20.384,1.984 C19.584,0.912 18.512,0.304 17.2,0.192 C16.592,0.149333252 15.9768889,0.142222168 15.3736296,0.142222168 C15.072,0.142222168 14.7733333,0.144 14.48,0.144 C14.128,0.16 13.776,0.16 13.424,0.16 L13.232,0.176 L13.232,0.176 L13.2,0.192 C12.56,0.288 12.112,0.736 12.048,1.376 C12.0373333,1.48266667 12.0337778,1.59644444 12.0325926,1.71259259 L12.032,10.112 C12.032,10.2 12.028,10.292 12.028,10.388 C12.028,10.484 12.032,10.584 12.048,10.688 C12.08,10.976 12.128,11.136 12.224,11.28 C12.304,11.392 12.416,11.504 12.464,11.536 C12.592,11.632 12.768,11.712 13.024,11.712 C13.28,11.712 13.52,11.616 13.696,11.456 C14.08,11.136 14.112,10.752 14.128,10.352 L14.128,9.088 C14.144,8.48 14.48,8.16 15.072,8.128 L16.208,8.128 C16.656,8.128 16.96,8.256 17.296,8.576 C17.456,8.736 17.616,8.928 17.744,9.088 C17.984,9.392 18.256,9.744 18.512,10.08 C18.736,10.368 18.976,10.672 19.184,10.944 C19.424,11.232 19.632,11.424 19.872,11.568 C20.048,11.68 20.24,11.728 20.4,11.728 Z M15.9365923,6.0344751 C15.5942563,6.0344751 15.2691282,6.02523755 14.992,6.016 C14.752,6.016 14.544,5.92 14.384,5.776 C14.24,5.616 14.144,5.408 14.144,5.168 C14.1333333,5.008 14.1297778,4.848 14.1285926,4.69274074 L14.128,3.824 C14.128,3.584 14.128,3.344 14.144,3.12 C14.16,2.624 14.464,2.288 14.928,2.256 C15.2142168,2.24168921 15.5356333,2.22737842 15.8765083,2.22737842 C16.2978525,2.22737842 16.7489263,2.24924341 17.2,2.32 C17.76,2.416 18.224,2.704 18.592,3.168 C18.8383201,3.47179492 18.9582371,3.80087036 18.9582371,4.13144238 C18.9582371,4.44505054 18.8503118,4.76000562 18.64,5.056 C18.192,5.648 17.552,5.968 16.704,6.016 C16.4470291,6.0295249 16.1871997,6.0344751 15.9365923,6.0344751 Z M29.008,11.808 C29.536,11.808 30.096,11.728 30.672,11.584 C31.6,11.328 32.448,10.8 33.04,10.08 C33.376,9.696 33.632,9.232 33.824,8.736 C34.016,8.208 34.096,7.616 34.096,6.992 C34.088,6.352 34.084,5.696 34.084,5.034 C34.084,4.372 34.088,3.704 34.096,3.04 L34.096,1.664 C34.096,1.424 34.096,1.104 34.016,0.88 C33.856,0.384 33.552,0.144 33.056,0.144 C32.448,0.144 32.224,0.384 32.064,0.816 C32,0.9824 31.9872,1.2 31.98464,1.403264 L31.984,7.072 C31.968,7.968 31.6,8.672 30.896,9.152 C30.3873176,9.51372974 29.8147446,9.69177319 29.1895654,9.69177319 C28.9298525,9.69177319 28.661061,9.66104736 28.384,9.6 C27.808,9.488 27.296,9.184 26.912,8.768 C26.5207402,8.34775781 26.3132234,7.82251978 26.3132234,7.23983276 C26.3132234,7.17916016 26.3154734,7.11786475 26.32,7.056 L26.32,5.456 C26.32,4.66666675 26.3128889,3.856 26.3128889,3.06192603 C26.3128889,2.66488892 26.3146667,2.272 26.32,1.888 C26.32,1.552 26.32,1.152 26.208,0.832 C26.032,0.384 25.712,0.144 25.248,0.144 C24.832,0.144 24.496,0.384 24.32,0.816 C24.2266667,1.02933333 24.2111111,1.33155556 24.2085185,1.53748148 L24.208,5.472 C24.208,6.112 24.208,6.784 24.224,7.44 C24.224,8.512 24.624,9.44 25.36,10.208 C26.4,11.28 27.616,11.808 29.008,11.808 Z M38.272,11.712 C38.592,11.712 38.832,11.616 39.008,11.408 C39.216,11.152 39.312,10.736 39.312,10.144 L39.312,10.096 C39.312,9.648 39.3048889,9.12888892 39.3048889,8.63822217 C39.3048889,8.39288892 39.3066667,8.15466675 39.312,7.936 C39.328,7.408 39.664,7.072 40.192,7.056 C40.32,7.04 40.432,7.04 40.56,7.04 L41.248,7.04 C41.398,7.046 41.50525,7.04975 41.6026562,7.05125 L41.698,7.052 C41.824,7.052 41.952,7.048 42.16,7.04 C42.656,7.04 43.072,6.896 43.312,6.528 C43.411689,6.36696387 43.456249,6.19122681 43.456249,6.01488037 C43.456249,5.82328174 43.4036477,5.63096387 43.312,5.456 C43.12,5.136 42.768,4.992 42.384,4.96 C42.272,4.944 42.144,4.944 42.016,4.944 L40.368,4.944 C39.632,4.928 39.328,4.608 39.312,3.872 L39.312,3.072 C39.344,2.608 39.68,2.288 40.144,2.256 C40.24,2.24 40.352,2.24 40.448,2.24 L43.472,2.24 C43.6,2.256 43.712,2.256 43.824,2.24 C44.144,2.208 44.576,2.128 44.832,1.76 C44.946198,1.58489624 45.0024353,1.40254736 45.0024353,1.21467725 C45.0024353,1.00771729 44.9341887,0.794056641 44.8,0.576 C44.576,0.288 44.224,0.144 43.728,0.144 L42.528,0.144 C41.6106667,0.144 40.8213333,0.151111084 39.9845925,0.151111084 C39.5662222,0.151111084 39.136,0.149333252 38.672,0.144 C38.256,0.144 37.872,0.304 37.6,0.592 C37.3431111,0.848888916 37.2146667,1.17713574 37.2146667,1.53630444 C37.2146667,1.55743213 37.2151111,1.57866675 37.216,1.6 L37.216,1.888 L37.2,2.048 L37.2,2.048 L37.2,7.232 C37.2,8.24 37.2,9.264 37.216,10.192 C37.216,10.784 37.312,11.184 37.504,11.424 C37.616,11.552 37.808,11.712 38.272,11.712 Z M48.864,11.712 C49.184,11.712 49.424,11.616 49.6,11.408 C49.808,11.152 49.904,10.736 49.904,10.144 L49.904,10.096 C49.904,9.648 49.8968889,9.12888892 49.8968889,8.63822217 C49.8968889,8.39288892 49.8986667,8.15466675 49.904,7.936 C49.92,7.408 50.256,7.072 50.784,7.056 C50.912,7.04 51.024,7.04 51.152,7.04 L51.84,7.04 C51.99,7.046 52.09725,7.04975 52.1946562,7.05125 L52.29,7.052 C52.416,7.052 52.544,7.048 52.752,7.04 C53.248,7.04 53.664,6.896 53.904,6.528 C54.003689,6.36696387 54.048249,6.19122681 54.048249,6.01488037 C54.048249,5.82328174 53.9956477,5.63096387 53.904,5.456 C53.712,5.136 53.36,4.992 52.976,4.96 C52.864,4.944 52.736,4.944 52.608,4.944 L50.96,4.944 C50.224,4.928 49.92,4.608 49.904,3.872 L49.904,3.072 C49.936,2.608 50.272,2.288 50.736,2.256 C50.832,2.24 50.944,2.24 51.04,2.24 L54.064,2.24 C54.192,2.256 54.304,2.256 54.416,2.24 C54.736,2.208 55.168,2.128 55.424,1.76 C55.538198,1.58489624 55.5944353,1.40254736 55.5944353,1.21467725 C55.5944353,1.00771729 55.5261887,0.794056641 55.392,0.576 C55.168,0.288 54.816,0.144 54.32,0.144 L53.12,0.144 C52.2026667,0.144 51.4133333,0.151111084 50.5765925,0.151111084 C50.1582222,0.151111084 49.728,0.149333252 49.264,0.144 C48.848,0.144 48.464,0.304 48.192,0.592 C47.9351111,0.848888916 47.8066667,1.17713574 47.8066667,1.53630444 C47.8066667,1.55743213 47.8071111,1.57866675 47.808,1.6 L47.808,1.888 L47.792,2.048 L47.792,2.048 L47.792,7.232 C47.792,8.24 47.792,9.264 47.808,10.192 C47.808,10.784 47.904,11.184 48.096,11.424 C48.208,11.552 48.4,11.712 48.864,11.712 Z M64.624,11.7119998 C64.736,11.7119998 64.848,11.7119998 64.96,11.6959998 C65.376,11.6639998 65.696,11.5039998 65.888,11.2319998 L65.888,11.2159998 C66.008,11.0399998 66.068,10.8599998 66.068,10.6739998 C66.068,10.4879998 66.008,10.2959998 65.888,10.0959998 L65.888,10.08 C65.664,9.76 65.28,9.6 64.736,9.6 L62.192,9.6 L61.648,9.60711108 C61.5573333,9.60711084 61.4666667,9.60533301 61.376,9.59999976 C60.928,9.56799976 60.576,9.24799976 60.512,8.78399976 C60.496,8.68799976 60.496,8.57599976 60.496,8.47999976 L60.496,1.63199976 C60.496,1.40799976 60.496,1.16799976 60.432,0.943999756 C60.272,0.479999756 59.872,0.143999756 59.472,0.143999756 L59.456,0.143999756 C59.056,0.143999756 58.656,0.479999756 58.512,0.927999756 C58.448,1.11999976 58.416,1.32799976 58.4,1.50399976 C58.384,1.59999976 58.384,1.69599976 58.4,1.79199976 L58.4,9.91999976 C58.4,10.1599998 58.4,10.4479998 58.496,10.7199998 C58.624,11.1519998 58.928,11.4559998 59.376,11.6159998 C59.5552,11.6927998 59.74464,11.7081598 59.927936,11.7112318 L64.624,11.7119998 Z M75.44,11.712 C75.728,11.712 75.952,11.68 76.176,11.632 C76.432,11.568 76.736,11.456 76.912,11.136 C76.982104,10.9724241 77.0180791,10.8088481 77.0180791,10.6471184 C77.0180791,10.4766404 76.9781067,10.3082134 76.896,10.144 C76.72,9.856 76.384,9.664 75.984,9.632 C75.84,9.616 75.696,9.616 75.552,9.616 L72.096,9.616 C71.792,9.616 71.488,9.488 71.28,9.28 C71.1186667,9.104 71.038,8.87422217 71.038,8.63996289 C71.038,8.61866675 71.0386667,8.59733325 71.04,8.576 C71.056,8.448 71.056,8.32 71.056,8.192 C71.056,8.112 71.04,8.016 71.056,7.936 C71.072,7.232 71.376,6.912 72.08,6.896 L73.952,6.896 C73.9919707,6.89810376 74.0311118,6.89910107 74.069532,6.89910107 C74.3233193,6.89910107 74.5456597,6.85558521 74.768,6.8 C75.232,6.656 75.456,6.224 75.456,5.856 C75.456717,5.84165894 75.4570806,5.82712524 75.4570806,5.81242603 C75.4570806,5.49913135 75.2919226,5.11067847 74.864,4.912 C74.624,4.816 74.384,4.816 74.16,4.816 C73.968,4.816 73.776,4.8 73.584,4.8 C73.088,4.8 72.56,4.8 72.048,4.816 C71.792,4.816 71.52,4.704 71.312,4.496 C71.136,4.304 71.04,4.064 71.04,3.84 C71.056,3.728 71.056,3.6 71.056,3.488 L71.0488889,3.296 C71.0488889,3.264 71.0506667,3.232 71.056,3.2 C71.072,2.576 71.424,2.24 72.032,2.24 C72.592,2.224 73.152,2.224 73.696,2.224 L75.808,2.224 C76.064,2.224 76.704,2.176 76.976,1.728 C77.0616008,1.56338281 77.1038437,1.38250659 77.1038437,1.20432983 C77.1038437,0.94955835 77.0174756,0.700306396 76.848,0.512 L76.848,0.496 C76.576,0.256 76.224,0.128 75.792,0.128 L71.264,0.128 C70.96,0.128 70.624,0.128 70.304,0.144 C69.632,0.176 69.168,0.56 69.008,1.232 C68.96,1.392 68.944,1.552 68.944,1.76 L68.944,10.048 C68.944,10.256 68.96,10.432 69.008,10.624 C69.152,11.152 69.472,11.472 70,11.632 C70.256,11.696 70.512,11.712 70.752,11.712 L75.44,11.712 Z M89.648,11.824 C90,11.824 90.352,11.792 90.72,11.744 C91.76,11.568 92.592,11.072 93.184,10.272 C93.592158,9.71807129 93.8143862,9.07117798 93.8143862,8.41601685 C93.8143862,8.35206372 93.8122688,8.28803198 93.808,8.224 C93.76,7.488 93.456,6.832 92.896,6.304 C92.544,5.968 92.112,5.68 91.6,5.456 C90.992,5.168 90.352,4.992 89.808,4.864 C89.328,4.752 88.784,4.624 88.288,4.416 C87.936,4.272 87.664,4.064 87.472,3.776 C87.3820896,3.62887402 87.3339348,3.48592358 87.3339348,3.34288232 C87.3339348,3.20591968 87.378084,3.06887402 87.472,2.928 C87.744,2.512 88.144,2.272 88.656,2.192 C88.904,2.152 89.142,2.132 89.3705,2.132 C90.056,2.132 90.656,2.312 91.184,2.672 C91.424,2.832 91.632,2.96 91.84,3.04 C91.9796462,3.10347559 92.1167742,3.13421436 92.248387,3.13421436 C92.4485244,3.13421436 92.6359084,3.06313428 92.8,2.928 C93.0614937,2.72461621 93.1940146,2.4626084 93.1940146,2.18455957 C93.1940146,2.00325806 93.1376709,1.81513647 93.024,1.632 C92.8,1.264 92.464,0.944 91.968,0.672 C91.216,0.24 90.384,0.032 89.36,0.016 L89.312,0.016 C89.312,0.016 89.2622222,0.016 89.1721481,0.0207407407 L89.008,0.032 L89.008,0.032 C88.8,0.048 88.656,0.048 88.448,0.08 C87.376,0.24 86.56,0.656 85.936,1.376 C85.4226895,1.93597534 85.1513328,2.6622937 85.1513328,3.39324023 C85.1513328,3.41415747 85.1515549,3.43507886 85.152,3.456 C85.168,4.24 85.504,4.96 86.096,5.504 C86.448,5.824 86.832,6.08 87.296,6.288 C87.888,6.56 88.512,6.72 89.104,6.864 C89.584,6.976 90.112,7.104 90.608,7.328 C90.96,7.472 91.216,7.664 91.408,7.904 C91.56,8.096 91.636,8.28 91.636,8.464 C91.636,8.648 91.56,8.832 91.408,9.024 C91.136,9.376 90.752,9.584 90.288,9.664 C90.0777791,9.69501611 89.8705273,9.71044434 89.6667244,9.71044434 C88.924324,9.71044434 88.2276877,9.50572021 87.6,9.104 C87.504,9.04 87.424,8.992 87.344,8.928 C87.248,8.864 87.136,8.784 87.024,8.72 C86.88,8.624 86.72,8.544 86.56,8.48 C86.4378181,8.43345459 86.3198677,8.41018188 86.2061487,8.41018188 C86.0071404,8.41018188 85.8210908,8.48145459 85.648,8.624 C85.3853469,8.8491311 85.2491841,9.09076099 85.2491841,9.35533789 C85.2491841,9.54204272 85.3169897,9.7401748 85.456,9.952 C85.648,10.272 85.936,10.544 86.368,10.832 C87.36,11.488 88.464,11.824 89.648,11.824 Z M103.312,11.712 C103.6,11.712 103.824,11.68 104.048,11.632 C104.304,11.568 104.608,11.456 104.784,11.136 C104.854104,10.9724241 104.890079,10.8088481 104.890079,10.6471184 C104.890079,10.4766404 104.850107,10.3082134 104.768,10.144 C104.592,9.856 104.256,9.664 103.856,9.632 C103.712,9.616 103.568,9.616 103.424,9.616 L99.968,9.616 C99.664,9.616 99.36,9.488 99.152,9.28 C98.9906667,9.104 98.91,8.87422217 98.91,8.63996289 L98.912,8.576 L98.912,8.576 C98.928,8.448 98.928,8.32 98.928,8.192 C98.928,8.112 98.912,8.016 98.928,7.936 C98.944,7.232 99.248,6.912 99.952,6.896 L101.824,6.896 C101.863971,6.89810376 101.903112,6.89910107 101.941532,6.89910107 C102.195319,6.89910107 102.41766,6.85558521 102.64,6.8 C103.104,6.656 103.328,6.224 103.328,5.856 C103.328717,5.84165894 103.329081,5.82712524 103.329081,5.81242603 C103.329081,5.49913135 103.163923,5.11067847 102.736,4.912 C102.496,4.816 102.256,4.816 102.032,4.816 C101.84,4.816 101.648,4.8 101.456,4.8 C100.96,4.8 100.432,4.8 99.92,4.816 C99.664,4.816 99.392,4.704 99.184,4.496 C99.008,4.304 98.912,4.064 98.912,3.84 C98.928,3.728 98.928,3.6 98.928,3.488 C98.928,3.392 98.912,3.296 98.928,3.2 C98.944,2.576 99.296,2.24 99.904,2.24 C100.464,2.224 101.024,2.224 101.568,2.224 L103.68,2.224 C103.936,2.224 104.576,2.176 104.848,1.728 C104.933601,1.56338281 104.975844,1.38250659 104.975844,1.20432983 C104.975844,0.94955835 104.889476,0.700306396 104.72,0.512 L104.72,0.496 C104.448,0.256 104.096,0.128 103.664,0.128 L99.136,0.128 C98.832,0.128 98.496,0.128 98.176,0.144 C97.504,0.176 97.04,0.56 96.88,1.232 C96.832,1.392 96.816,1.552 96.816,1.76 L96.816,10.048 C96.816,10.256 96.832,10.432 96.88,10.624 C97.024,11.152 97.344,11.472 97.872,11.632 C98.128,11.696 98.384,11.712 98.624,11.712 L103.312,11.712 Z M113.024,11.824 C113.424,11.824 113.824,11.776 114.224,11.696 C115.12,11.52 115.936,11.152 116.608,10.608 C116.816,10.432 117.088,10.192 117.264,9.872 C117.356302,9.7027793 117.404231,9.53725635 117.404231,9.37898657 C117.404231,9.20803564 117.348314,9.04554663 117.232,8.896 C117.008572,8.59371436 116.752755,8.44257153 116.446815,8.44257153 C116.380306,8.44257153 116.311428,8.44971436 116.24,8.464 C116.064,8.496 115.904,8.576 115.696,8.688 C115.6,8.752 115.504,8.832 115.392,8.896 C115.28,8.976 115.152,9.056 115.04,9.136 C114.402591,9.51265112 113.752065,9.71879004 113.100298,9.71879004 C113.032208,9.71879004 112.964104,9.71654028 112.896,9.712 C111.84,9.648 110.88,9.184 110.192,8.384 C109.588907,7.69264917 109.256279,6.81197266 109.256279,5.92845972 C109.256279,5.85095288 109.258838,5.77342432 109.264,5.696 C109.312,4.784 109.712,3.92 110.384,3.248 C111.072,2.56 111.936,2.16 112.832,2.128 C112.887467,2.1258667 112.942578,2.12480005 112.997343,2.12480005 C113.764053,2.12480005 114.462933,2.3338667 115.12,2.752 C115.184,2.8 115.248,2.848 115.312,2.88 C115.536,3.024 115.76,3.184 116.016,3.296 C116.169179,3.35410229 116.308408,3.38430493 116.438292,3.38430493 C116.701845,3.38430493 116.926923,3.25994922 117.152,2.992 C117.298058,2.82159961 117.370043,2.63885376 117.370043,2.44167554 C117.370043,2.25005273 117.302057,2.04479932 117.168,1.824 C116.976,1.504 116.752,1.328 116.48,1.136 C115.424,0.368 114.272,0.016 112.848,0.016 C112.64,0.016 112.272,0.048 111.888,0.128 C110.912,0.336 110.032,0.752 109.264,1.376 C108.544,1.984 107.984,2.752 107.616,3.616 C107.300843,4.34223267 107.138239,5.13887476 107.138239,5.92552759 C107.138239,6.05742554 107.14281,6.18904272 107.152,6.32 C107.216,7.312 107.536,8.24 108.08,9.088 C108.72,10.096 109.616,10.864 110.704,11.344 C111.44,11.664 112.224,11.824 113.024,11.824 Z M125.072,11.808 C125.6,11.808 126.16,11.728 126.736,11.584 C127.664,11.328 128.512,10.8 129.104,10.08 C129.44,9.696 129.696,9.232 129.888,8.736 C130.08,8.208 130.16,7.616 130.16,6.992 C130.152,6.352 130.148,5.696 130.148,5.034 C130.148,4.372 130.152,3.704 130.16,3.04 L130.16,1.664 C130.16,1.424 130.16,1.104 130.08,0.88 C129.92,0.384 129.616,0.144 129.12,0.144 C128.512,0.144 128.288,0.384 128.128,0.816 C128.048,1.024 128.048,1.312 128.048,1.552 L128.048,7.072 C128.032,7.968 127.664,8.672 126.96,9.152 C126.451318,9.51372974 125.878745,9.69177319 125.253565,9.69177319 C124.993853,9.69177319 124.725061,9.66104736 124.448,9.6 C123.872,9.488 123.36,9.184 122.976,8.768 C122.58474,8.34775781 122.377223,7.82251978 122.377223,7.23983276 C122.377223,7.17916016 122.379473,7.11786475 122.384,7.056 L122.384,5.456 C122.384,4.66666675 122.376889,3.856 122.376889,3.06192603 C122.376889,2.66488892 122.378667,2.272 122.384,1.888 C122.384,1.552 122.384,1.152 122.272,0.832 C122.096,0.384 121.776,0.144 121.312,0.144 C120.896,0.144 120.56,0.384 120.384,0.816 C120.290667,1.02933333 120.275111,1.33155556 120.272519,1.53748148 L120.272,5.472 C120.272,6.112 120.272,6.784 120.288,7.44 C120.288,8.512 120.688,9.44 121.424,10.208 C122.464,11.28 123.68,11.808 125.072,11.808 Z M141.664,11.728 C141.936,11.728 142.176,11.616 142.384,11.376 C142.534728,11.1951265 142.616037,10.9953206 142.616037,10.7726189 C142.616037,10.6407187 142.587515,10.5007869 142.528,10.352 C142.432,10.08 142.256,9.84 142.08,9.616 L142,9.504 C141.664,9.088 141.264,8.56 140.96,8.16 C140.816,7.968 140.744,7.792 140.744,7.616 C140.744,7.44 140.816,7.264 140.96,7.072 C141.04,6.96 141.136,6.864 141.232,6.768 L141.424,6.576 C141.984,5.92 142.32,5.136 142.368,4.32 C142.369882,4.27105884 142.370823,4.2221731 142.370823,4.17336548 C142.370823,3.39244287 142.129882,2.6315293 141.648,1.984 C140.848,0.912 139.776,0.304 138.464,0.192 C137.856,0.149333252 137.240889,0.142222168 136.63763,0.142222168 C136.336,0.142222168 136.037333,0.144 135.744,0.144 C135.392,0.16 135.04,0.16 134.688,0.16 L134.496,0.176 L134.496,0.176 L134.464,0.192 C133.824,0.288 133.376,0.736 133.312,1.376 C133.301333,1.48266667 133.297778,1.59644444 133.296593,1.71259259 L133.296,10.112 C133.296,10.2 133.292,10.292 133.292,10.388 C133.292,10.484 133.296,10.584 133.312,10.688 C133.344,10.976 133.392,11.136 133.488,11.28 C133.568,11.392 133.68,11.504 133.728,11.536 C133.856,11.632 134.032,11.712 134.288,11.712 C134.544,11.712 134.784,11.616 134.96,11.456 C135.344,11.136 135.376,10.752 135.392,10.352 L135.392,9.088 C135.408,8.48 135.744,8.16 136.336,8.128 L137.472,8.128 C137.92,8.128 138.224,8.256 138.56,8.576 C138.72,8.736 138.88,8.928 139.008,9.088 C139.248,9.392 139.52,9.744 139.776,10.08 C140,10.368 140.24,10.672 140.448,10.944 C140.688,11.232 140.896,11.424 141.136,11.568 C141.312,11.68 141.504,11.728 141.664,11.728 Z M137.200592,6.0344751 C136.858256,6.0344751 136.533128,6.02523755 136.256,6.016 C136.016,6.016 135.808,5.92 135.648,5.776 C135.504,5.616 135.408,5.408 135.408,5.168 C135.397333,5.008 135.393778,4.848 135.392593,4.69274074 L135.392,3.824 C135.392,3.584 135.392,3.344 135.408,3.12 C135.424,2.624 135.728,2.288 136.192,2.256 C136.478217,2.24168921 136.799633,2.22737842 137.140508,2.22737842 C137.561853,2.22737842 138.012926,2.24924341 138.464,2.32 C139.024,2.416 139.488,2.704 139.856,3.168 C140.10232,3.47179492 140.222237,3.80087036 140.222237,4.13144238 C140.222237,4.44505054 140.114312,4.76000562 139.904,5.056 C139.456,5.648 138.816,5.968 137.968,6.016 C137.711029,6.0295249 137.4512,6.0344751 137.200592,6.0344751 Z M146.644312,11.7064219 C147.081734,11.7064219 147.407375,11.4546563 147.586078,10.9783438 C147.723187,10.6128977 147.738156,10.2208726 147.738156,10.0679968 L147.738156,10.0667969 L147.737766,8.97693413 L147.737766,8.97693413 L147.737219,1.76601563 C147.737219,1.73226563 147.737766,1.6984375 147.738297,1.66457813 C147.739953,1.56496875 147.744,1.456 147.728,1.36 L147.725891,1.333875 C147.708891,1.19139063 147.673547,0.89490625 147.53275,0.632203125 C147.354469,0.299546875 147.07025,0.130890625 146.688,0.130890625 C146.334734,0.130890625 146.049375,0.29396875 145.862766,0.6025 C145.700453,0.87084375 145.661344,1.1608125 145.653234,1.24328125 C145.637391,1.40428125 145.637328,1.56817188 145.637266,1.72665625 L145.63725,1.76121875 L145.636809,2.45440502 L145.636809,2.45440502 L145.636861,9.40972304 C145.636958,9.65014054 145.637089,9.88761027 145.637266,10.120625 C145.637359,10.2484531 145.637656,10.6374375 145.759625,10.9973281 C145.916828,11.4612188 146.22275,11.7064219 146.644312,11.7064219 Z M155.248,11.712 C155.472,11.712 155.68,11.648 155.856,11.504 C156.112,11.296 156.224,11.056 156.256,10.688 C156.272,10.48 156.272,10.256 156.272,10 L156.272,3.712 L156.288,3.472 L156.288,3.472 L156.288,3.2 C156.288,2.64 156.72,2.224 157.264,2.224 L158.288,2.224 C158.576,2.224 158.848,2.176 159.088,2.08 C159.536,1.904 159.728,1.6 159.744,1.2 C159.745492,1.17686597 159.746219,1.15421924 159.746219,1.13204858 C159.746219,0.67887085 159.442567,0.424537354 159.168,0.272 C159.008,0.192 158.832,0.144 158.64,0.144 L158.512,0.144 C158.4,0.128 158.288,0.128 158.192,0.128 L152.192,0.128 C152.048,0.128 151.904,0.128 151.744,0.144 C151.44,0.176 151.168,0.304 150.96,0.512 C150.752,0.72 150.704,0.944 150.704,1.184 C150.72,1.408 150.768,1.632 150.976,1.84 C151.312,2.16 151.744,2.208 152.064,2.224 L153.2,2.224 C153.536,2.224 153.76,2.304 153.936,2.464 C154.073143,2.60114286 154.15151,2.78530612 154.181178,3.0467172 L154.192,3.184 C154.208,3.312 154.208,3.472 154.208,3.6 L154.208,10.032 C154.208,10.256 154.224,10.512 154.256,10.72 C154.288,11.072 154.384,11.296 154.64,11.488 C154.816,11.632 155.04,11.712 155.248,11.712 Z M167.632,11.696 C167.856,11.696 168.08,11.584 168.288,11.376 C168.544,11.12 168.672,10.784 168.672,10.352 L168.672,8.048 C168.672,7.6 168.784,7.184 169.04,6.784 L169.376,6.304 C169.392,6.288 169.408,6.256 169.44,6.224 C169.904,5.6 170.368,4.928 170.832,4.288 C171.296,3.632 171.792,2.944 172.272,2.304 C172.448,2.048 172.624,1.792 172.736,1.488 C172.757333,1.38666675 172.776889,1.25866675 172.776889,1.12177783 C172.776889,0.848 172.698667,0.538666748 172.4,0.336 C172.226823,0.215529297 172.039474,0.155294189 171.849624,0.155294189 C171.636042,0.155294189 171.419294,0.231529297 171.216,0.384 C170.912,0.624 170.672,0.912 170.512,1.136 C170.192,1.568 169.872,2.032 169.568,2.464 C169.248,2.912 168.912,3.392 168.576,3.824 C168.544,3.872 168.528,3.92 168.496,3.952 L168.272,4.24 L168.272,4.24 C168.048,4.544 167.84,4.688 167.616,4.688 L167.584,4.688 C167.424,4.688 167.2,4.544 166.976,4.256 C166.896,4.16 166.816,4.048 166.736,3.936 L166.208,3.232 C165.728,2.56 165.216,1.872 164.704,1.184 C164.512,0.928 164.272,0.624 163.952,0.4 C163.76,0.256 163.55,0.184 163.349,0.184 C163.282,0.184 163.216,0.192 163.152,0.208 C162.896,0.272 162.672,0.464 162.528,0.752 C162.464,0.88 162.432,1.016 162.432,1.16 C162.432,1.304 162.464,1.456 162.528,1.616 C162.64,1.904 162.8,2.144 162.976,2.368 C163.408,2.96 163.84,3.552 164.288,4.144 L164.56,4.528 L164.992,5.12 L164.992,5.12 C165.328,5.584 165.664,6.048 166.016,6.512 C166.39026,7.00141748 166.583216,7.50378516 166.583216,8.03075439 C166.583216,8.0895249 166.580816,8.14860132 166.576,8.208 C166.570667,8.26666675 166.568889,8.32533325 166.568889,8.384 L166.576,8.736 L166.576,8.736 L166.576,10.352 C166.592,10.8 166.72,11.12 166.96,11.376 C167.168,11.584 167.392,11.696 167.616,11.696 L167.632,11.696 Z M186.448,11.824 C186.848,11.824 187.248,11.776 187.648,11.696 C188.544,11.52 189.36,11.152 190.032,10.608 C190.24,10.432 190.512,10.192 190.688,9.872 C190.780302,9.7027793 190.828231,9.53725635 190.828231,9.37898657 C190.828231,9.20803564 190.772314,9.04554663 190.656,8.896 C190.432572,8.59371436 190.176755,8.44257153 189.870815,8.44257153 C189.804306,8.44257153 189.735428,8.44971436 189.664,8.464 C189.488,8.496 189.328,8.576 189.12,8.688 C189.024,8.752 188.928,8.832 188.816,8.896 L188.464,9.136 L188.464,9.136 C187.826591,9.51265112 187.176065,9.71879004 186.524298,9.71879004 C186.456208,9.71879004 186.388104,9.71654028 186.32,9.712 C185.264,9.648 184.304,9.184 183.616,8.384 C183.012907,7.69264917 182.680279,6.81197266 182.680279,5.92845972 C182.680279,5.85095288 182.682838,5.77342432 182.688,5.696 C182.736,4.784 183.136,3.92 183.808,3.248 C184.496,2.56 185.36,2.16 186.256,2.128 C186.311467,2.1258667 186.366578,2.12480005 186.421343,2.12480005 C187.188053,2.12480005 187.886933,2.3338667 188.544,2.752 C188.608,2.8 188.672,2.848 188.736,2.88 C188.96,3.024 189.184,3.184 189.44,3.296 C189.593179,3.35410229 189.732408,3.38430493 189.862292,3.38430493 C190.125845,3.38430493 190.350923,3.25994922 190.576,2.992 C190.722058,2.82159961 190.794043,2.63885376 190.794043,2.44167554 C190.794043,2.25005273 190.726057,2.04479932 190.592,1.824 C190.4,1.504 190.176,1.328 189.904,1.136 C188.848,0.368 187.696,0.016 186.272,0.016 C186.064,0.016 185.696,0.048 185.312,0.128 C184.336,0.336 183.456,0.752 182.688,1.376 C181.968,1.984 181.408,2.752 181.04,3.616 C180.724843,4.34223267 180.562239,5.13887476 180.562239,5.92552759 C180.562239,6.05742554 180.56681,6.18904272 180.576,6.32 C180.64,7.312 180.96,8.24 181.504,9.088 C182.144,10.096 183.04,10.864 184.128,11.344 C184.864,11.664 185.648,11.824 186.448,11.824 Z M198.878097,11.8123757 C198.947915,11.8123757 199.017891,11.8109211 199.088,11.808 L199.216,11.808 C199.904,11.808 200.608,11.68 201.28,11.408 C202,11.12 202.656,10.688 203.216,10.144 C203.76,9.616 204.192,8.992 204.496,8.304 C204.816,7.568 204.976,6.752 204.992,5.92 C204.992,4.32 204.368,2.816 203.232,1.696 C202.704,1.168 202.064,0.752 201.36,0.448 C200.64,0.16 199.872,0 199.088,0 C198.272,0 197.488,0.16 196.752,0.464 C196.064,0.768 195.456,1.184 194.912,1.728 C193.792,2.848 193.152,4.384 193.152,5.936 C193.168,6.736 193.328,7.52 193.664,8.272 C193.968,8.976 194.416,9.616 194.976,10.16 C195.536,10.704 196.16,11.12 196.864,11.392 C197.503733,11.6682485 198.183103,11.8123757 198.878097,11.8123757 Z M199.072,9.696 L199.024,9.696 C198.56,9.696 198.08,9.6 197.616,9.392 C197.168,9.2 196.768,8.928 196.416,8.576 C196.064,8.224 195.776,7.824 195.584,7.36 C195.308952,6.65066675 195.295855,6.07230835 195.295855,5.96857886 C195.295855,5.95765991 195.296,5.952 195.296,5.952 L195.296,5.76 C195.296,5.472 195.392,4.928 195.584,4.48 C195.776,4.016 196.064,3.584 196.4,3.232 C196.736,2.896 197.136,2.624 197.568,2.448 C198.032,2.24 198.544,2.144 199.072,2.128 C200.096,2.128 201.04,2.528 201.76,3.248 C202.450426,3.93842627 202.848462,4.87507593 202.848462,5.87684204 L202.848,5.936 L202.848,5.936 C202.848,6.96 202.432,7.92 201.696,8.64 C200.992,9.312 200.032,9.696 199.072,9.696 Z"
          ></path>
        </g>
      </g>
    </g>
  </g>
</svg>
