<?xml version="1.0" encoding="utf-8"?>
<!-- Generator: Adobe Illustrator 27.7.0, SVG Export Plug-In . SVG Version: 6.00 Build 0)  -->
<svg version="1.1" id="Layer_1" xmlns="http://www.w3.org/2000/svg" xmlns:xlink="http://www.w3.org/1999/xlink" x="0px" y="0px"
	 viewBox="0 0 95.5 15.3" style="enable-background:new 0 0 95.5 15.3;" xml:space="preserve">
<style type="text/css">
	.st0{fill:#999999;}
</style>
<g>
	<path d="M7.9,0.1v8.5H5.2V5.3H2.7v3.3H0V0.1h2.7v3.1h2.5V0.1H7.9z"/>
	<path d="M10.5,8.2C9.9,7.8,9.3,7.3,8.9,6.6C8.5,5.9,8.3,5.2,8.3,4.4c0-0.8,0.2-1.6,0.6-2.2c0.4-0.7,0.9-1.2,1.6-1.6S11.9,0,12.7,0
		c0.8,0,1.5,0.2,2.2,0.6s1.2,0.9,1.6,1.6c0.4,0.7,0.6,1.4,0.6,2.2c0,0.8-0.2,1.6-0.6,2.2c-0.4,0.7-0.9,1.2-1.6,1.6
		c-0.7,0.4-1.4,0.6-2.2,0.6C11.9,8.7,11.2,8.5,10.5,8.2z M13.9,5.7c0.3-0.3,0.4-0.8,0.4-1.4c0-0.6-0.1-1-0.4-1.4s-0.7-0.5-1.2-0.5
		c-0.5,0-0.9,0.2-1.2,0.5s-0.4,0.8-0.4,1.4c0,0.6,0.1,1,0.4,1.4c0.3,0.3,0.7,0.5,1.2,0.5C13.2,6.2,13.7,6.1,13.9,5.7z"/>
	<path d="M29.3,0.1l-1.9,8.5h-3.3l-1-4.8l-1,4.8h-3.3l-1.9-8.5h2.9l0.8,5.4l1.2-5.4h2.9l1.2,5.4l0.8-5.4H29.3z"/>
	<path d="M39,0.1v2.1h-2.3v6.4h-2.7V2.3h-2.2V0.1H39z"/>
	<path d="M41.4,8.2c-0.7-0.4-1.2-0.9-1.6-1.6c-0.4-0.7-0.6-1.4-0.6-2.2c0-0.8,0.2-1.6,0.6-2.2c0.4-0.7,0.9-1.2,1.6-1.6
		S42.8,0,43.6,0c0.8,0,1.5,0.2,2.2,0.6s1.2,0.9,1.6,1.6C47.8,2.8,48,3.5,48,4.4c0,0.8-0.2,1.6-0.6,2.2c-0.4,0.7-0.9,1.2-1.6,1.6
		c-0.7,0.4-1.4,0.6-2.2,0.6C42.8,8.7,42.1,8.5,41.4,8.2z M44.8,5.7c0.3-0.3,0.4-0.8,0.4-1.4c0-0.6-0.1-1-0.4-1.4s-0.7-0.5-1.2-0.5
		c-0.5,0-0.9,0.2-1.2,0.5s-0.4,0.8-0.4,1.4c0,0.6,0.1,1,0.4,1.4c0.3,0.3,0.7,0.5,1.2,0.5C44.1,6.2,44.5,6.1,44.8,5.7z"/>
	<path d="M55.2,8.6l-1.6-3h0v3H51V0.1h4c0.7,0,1.3,0.1,1.8,0.4c0.5,0.2,0.9,0.6,1.1,1c0.2,0.4,0.4,0.9,0.4,1.4
		c0,0.6-0.2,1.1-0.5,1.5c-0.3,0.4-0.8,0.8-1.4,0.9l1.8,3.3H55.2z M53.6,3.8h1.1c0.3,0,0.4-0.1,0.6-0.2c0.1-0.1,0.2-0.3,0.2-0.5
		c0-0.2-0.1-0.4-0.2-0.5c-0.1-0.1-0.3-0.2-0.6-0.2h-1.1V3.8z"/>
	<path d="M60.7,8.2c-0.7-0.4-1.2-0.9-1.6-1.6c-0.4-0.7-0.6-1.4-0.6-2.2c0-0.8,0.2-1.6,0.6-2.2c0.4-0.7,0.9-1.2,1.6-1.6
		S62.1,0,62.9,0c0.8,0,1.5,0.2,2.2,0.6s1.2,0.9,1.6,1.6c0.4,0.7,0.6,1.4,0.6,2.2c0,0.8-0.2,1.6-0.6,2.2c-0.4,0.7-0.9,1.2-1.6,1.6
		c-0.7,0.4-1.4,0.6-2.2,0.6C62.1,8.7,61.4,8.5,60.7,8.2z M64.1,5.7c0.3-0.3,0.4-0.8,0.4-1.4c0-0.6-0.1-1-0.4-1.4s-0.7-0.5-1.2-0.5
		c-0.5,0-0.9,0.2-1.2,0.5s-0.4,0.8-0.4,1.4c0,0.6,0.1,1,0.4,1.4c0.3,0.3,0.7,0.5,1.2,0.5C63.4,6.2,63.8,6.1,64.1,5.7z"/>
	<path d="M74.4,0.1v2.1h-2.3v6.4h-2.7V2.3h-2.2V0.1H74.4z"/>
	<path d="M79.6,7.4h-2.8l-0.4,1.3h-2.8l3.1-8.5h3.1l3.1,8.5H80L79.6,7.4z M79,5.4L78.2,3l-0.8,2.4H79z"/>
	<path d="M89.4,0.1v2.1h-2.3v6.4h-2.7V2.3h-2.2V0.1H89.4z"/>
	<path d="M92.5,2.3v1h2.6v2h-2.6v1.2h3v2.1h-5.7V0.1h5.7v2.1H92.5z"/>
</g>
<g>
	<path class="st0" d="M2.6,15.3l-1.2-1.8v1.8H0V11h1.3v1.8L2.6,11h1.5l-1.5,2l1.6,2.2H2.6z"/>
	<path class="st0" d="M5.8,12.1v0.5h1.3v1H5.8v0.6h1.5v1.1H4.5V11h2.8v1.1H5.8z"/>
	<path class="st0" d="M12,11l-1.5,3v1.3H9.2V14l-1.5-3h1.5l0.7,1.5l0.7-1.5H12z"/>
	<path class="st0" d="M15.4,15.3l-0.8-1.5h0v1.5h-1.3V11h2c0.3,0,0.6,0.1,0.9,0.2c0.2,0.1,0.4,0.3,0.5,0.5s0.2,0.4,0.2,0.7
		c0,0.3-0.1,0.5-0.2,0.8c-0.2,0.2-0.4,0.4-0.7,0.5l0.9,1.6H15.4z M14.6,12.9h0.5c0.1,0,0.2,0,0.3-0.1c0.1-0.1,0.1-0.1,0.1-0.3
		c0-0.1,0-0.2-0.1-0.3c-0.1-0.1-0.2-0.1-0.3-0.1h-0.5V12.9z"/>
	<path class="st0" d="M18.2,15c-0.3-0.2-0.6-0.4-0.8-0.8c-0.2-0.3-0.3-0.7-0.3-1.1s0.1-0.8,0.3-1.1c0.2-0.3,0.5-0.6,0.8-0.8
		c0.3-0.2,0.7-0.3,1.1-0.3c0.4,0,0.8,0.1,1.1,0.3c0.3,0.2,0.6,0.4,0.8,0.8c0.2,0.3,0.3,0.7,0.3,1.1s-0.1,0.8-0.3,1.1
		c-0.2,0.3-0.5,0.6-0.8,0.8c-0.3,0.2-0.7,0.3-1.1,0.3C18.9,15.3,18.6,15.2,18.2,15z M19.9,13.8c0.1-0.2,0.2-0.4,0.2-0.7
		c0-0.3-0.1-0.5-0.2-0.7s-0.3-0.3-0.6-0.3c-0.3,0-0.5,0.1-0.6,0.3s-0.2,0.4-0.2,0.7c0,0.3,0.1,0.5,0.2,0.7s0.4,0.3,0.6,0.3
		C19.6,14.1,19.8,14,19.9,13.8z"/>
	<path class="st0" d="M25.2,11v1.1h-1.1v3.2h-1.3v-3.2h-1.1V11H25.2z"/>
	<path class="st0" d="M28,14.6h-1.4l-0.2,0.6h-1.4l1.6-4.2H28l1.5,4.2h-1.4L28,14.6z M27.6,13.6l-0.4-1.2l-0.4,1.2H27.6z"/>
	<path class="st0" d="M32.8,11v1.1h-1.1v3.2h-1.3v-3.2h-1.1V11H32.8z"/>
	<path class="st0" d="M34.6,11v4.2h-1.3V11H34.6z"/>
	<path class="st0" d="M36.1,15c-0.3-0.2-0.6-0.4-0.8-0.8c-0.2-0.3-0.3-0.7-0.3-1.1s0.1-0.8,0.3-1.1c0.2-0.3,0.5-0.6,0.8-0.8
		c0.3-0.2,0.7-0.3,1.1-0.3c0.4,0,0.8,0.1,1.1,0.3c0.3,0.2,0.6,0.4,0.8,0.8c0.2,0.3,0.3,0.7,0.3,1.1s-0.1,0.8-0.3,1.1
		c-0.2,0.3-0.5,0.6-0.8,0.8c-0.3,0.2-0.7,0.3-1.1,0.3C36.8,15.3,36.4,15.2,36.1,15z M37.8,13.8c0.1-0.2,0.2-0.4,0.2-0.7
		c0-0.3-0.1-0.5-0.2-0.7s-0.3-0.3-0.6-0.3c-0.3,0-0.5,0.1-0.6,0.3s-0.2,0.4-0.2,0.7c0,0.3,0.1,0.5,0.2,0.7s0.4,0.3,0.6,0.3
		C37.5,14.1,37.7,14,37.8,13.8z"/>
	<path class="st0" d="M43.8,15.3h-1.3l-1.4-2.1v2.1h-1.3V11h1.3l1.4,2.2V11h1.3V15.3z"/>
	<path class="st0" d="M48.7,11v1.1h-1.1v3.2h-1.3v-3.2h-1.1V11H48.7z"/>
	<path class="st0" d="M50.4,11v2.4c0,0.2,0,0.4,0.1,0.5S50.8,14,51,14c0.2,0,0.3-0.1,0.4-0.2c0.1-0.1,0.1-0.3,0.1-0.5V11h1.3v2.4
		c0,0.4-0.1,0.7-0.3,1c-0.2,0.3-0.4,0.5-0.7,0.6c-0.3,0.1-0.6,0.2-1,0.2c-0.4,0-0.7-0.1-1-0.2c-0.3-0.1-0.5-0.4-0.7-0.6
		s-0.2-0.6-0.2-1V11H50.4z"/>
	<path class="st0" d="M56.9,11v1.1h-1.1v3.2h-1.3v-3.2h-1.1V11H56.9z"/>
	<path class="st0" d="M58.1,15c-0.3-0.2-0.6-0.4-0.8-0.8S57,13.5,57,13.1s0.1-0.8,0.3-1.1s0.5-0.6,0.8-0.8c0.3-0.2,0.7-0.3,1.1-0.3
		c0.4,0,0.8,0.1,1.1,0.3c0.3,0.2,0.6,0.4,0.8,0.8s0.3,0.7,0.3,1.1s-0.1,0.8-0.3,1.1s-0.5,0.6-0.8,0.8c-0.3,0.2-0.7,0.3-1.1,0.3
		C58.8,15.3,58.5,15.2,58.1,15z M59.8,13.8c0.1-0.2,0.2-0.4,0.2-0.7c0-0.3-0.1-0.5-0.2-0.7c-0.1-0.2-0.3-0.3-0.6-0.3
		c-0.3,0-0.5,0.1-0.6,0.3c-0.1,0.2-0.2,0.4-0.2,0.7c0,0.3,0.1,0.5,0.2,0.7c0.1,0.2,0.3,0.3,0.6,0.3C59.5,14.1,59.7,14,59.8,13.8z"/>
	<path class="st0" d="M63.9,15.3l-0.8-1.5h0v1.5h-1.3V11h2c0.3,0,0.6,0.1,0.9,0.2s0.4,0.3,0.5,0.5s0.2,0.4,0.2,0.7
		c0,0.3-0.1,0.5-0.2,0.8s-0.4,0.4-0.7,0.5l0.9,1.6H63.9z M63.1,12.9h0.5c0.1,0,0.2,0,0.3-0.1c0.1-0.1,0.1-0.1,0.1-0.3
		c0-0.1,0-0.2-0.1-0.3c-0.1-0.1-0.2-0.1-0.3-0.1h-0.5V12.9z"/>
	<path class="st0" d="M67.2,11v4.2h-1.3V11H67.2z"/>
	<path class="st0" d="M70.7,14.6h-1.4L69,15.3h-1.4l1.6-4.2h1.5l1.5,4.2h-1.4L70.7,14.6z M70.3,13.6l-0.4-1.2l-0.4,1.2H70.3z"/>
	<path class="st0" d="M74,14.3h1.3v1h-2.6V11H74V14.3z"/>
	<path class="st0" d="M76.2,14.9c-0.3-0.2-0.5-0.6-0.5-1h1.4c0,0.2,0.1,0.4,0.3,0.4c0.1,0,0.1,0,0.2-0.1c0.1,0,0.1-0.1,0.1-0.2
		c0-0.1-0.1-0.2-0.2-0.2c-0.1-0.1-0.3-0.1-0.5-0.2c-0.3-0.1-0.5-0.2-0.7-0.3c-0.2-0.1-0.3-0.2-0.5-0.4s-0.2-0.4-0.2-0.7
		c0-0.3,0.1-0.5,0.2-0.7c0.1-0.2,0.3-0.3,0.6-0.4c0.2-0.1,0.5-0.1,0.8-0.1c0.5,0,0.9,0.1,1.2,0.4c0.3,0.2,0.5,0.6,0.5,1h-1.4
		c0-0.1,0-0.2-0.1-0.3C77.5,12,77.4,12,77.3,12c-0.1,0-0.1,0-0.1,0.1s-0.1,0.1-0.1,0.2c0,0.1,0.1,0.2,0.2,0.2
		c0.1,0.1,0.3,0.1,0.5,0.2c0.3,0.1,0.5,0.2,0.7,0.3c0.2,0.1,0.3,0.2,0.5,0.4c0.1,0.2,0.2,0.4,0.2,0.6c0,0.3-0.1,0.5-0.2,0.7
		c-0.1,0.2-0.3,0.4-0.6,0.5s-0.5,0.2-0.9,0.2C77,15.3,76.6,15.2,76.2,14.9z"/>
</g>
</svg>
